<svg xmlns="http://www.w3.org/2000/svg" width="22.533" height="25.099" viewBox="0 0 22.533 25.099"><defs><style>.a{fill:none;stroke:#384364;stroke-linecap:square;stroke-width:2px;}</style></defs><g transform="translate(-3 -2)"><path class="a" d="M8,3V26.1" transform="translate(1.133)"/><path class="a" d="M24.533,3V26.1H6.567A2.567,2.567,0,0,1,4,23.533V5.567A2.567,2.567,0,0,1,6.567,3Z"/><path class="a" d="M8,19.927c0-2.567,4.278-2.139,5.989-3.85.855-.856-1.711-.856-1.711-5.133q0-4.277,3.422-4.278t3.422,4.278c0,4.278-2.567,4.278-1.711,5.133,1.711,1.711,5.989,1.283,5.989,3.85" transform="translate(1.133 1.039)"/></g></svg>